<?xml version="1.0" standalone="no"?><svg xmlns="http://www.w3.org/2000/svg" viewBox="0 0 1440 320"><path fill="#94849B" fill-opacity="1" d="M0,320L34.3,309.3C68.6,299,137,277,206,266.7C274.3,256,343,256,411,245.3C480,235,549,213,617,186.7C685.7,160,754,128,823,149.3C891.4,171,960,245,1029,256C1097.1,267,1166,213,1234,176C1302.9,139,1371,117,1406,106.7L1440,96L1440,320L1405.7,320C1371.4,320,1303,320,1234,320C1165.7,320,1097,320,1029,320C960,320,891,320,823,320C754.3,320,686,320,617,320C548.6,320,480,320,411,320C342.9,320,274,320,206,320C137.1,320,69,320,34,320L0,320Z"></path></svg>